<?xml version="1.0" encoding="utf-8"?>
<!-- Generator: Adobe Illustrator 21.1.0, SVG Export Plug-In . SVG Version: 6.00 Build 0)  -->
<svg version="1.1" id="basketball-o" xmlns:sketch="http://www.bohemiancoding.com/sketch/ns"
	 xmlns="http://www.w3.org/2000/svg" xmlns:xlink="http://www.w3.org/1999/xlink" x="0px" y="0px" viewBox="0 0 32 32"
	 style="enable-background:new 0 0 32 32;" xml:space="preserve">
<style type="text/css">
	.st0{fill:#929292;}
</style>
<g id="Page-1">
	<g id="icon-1-basketball">
		<path id="basketball" class="st0" d="M16,29V17h-4c-0.1,3.4-1.6,6.5-4,8.7C10.1,27.6,12.9,28.9,16,29L16,29z M6.6,24.1
			c-1.5-2-2.5-4.5-2.6-7.1h7c-0.1,3.1-1.5,6-3.7,8C7.3,25,6.8,24.4,6.6,24.1L6.6,24.1z M25.7,24.9c1.9-2.1,3.2-4.9,3.3-8l0,0h-7
			C22.1,20.1,23.5,23,25.7,24.9L25.7,24.9L25.7,24.9z M25,25.7c-2.1,2-4.9,3.2-8,3.3l0,0V17h4C21.1,20.4,22.6,23.5,25,25.7L25,25.7
			L25,25.7z M25.7,8c1.9,2.1,3.2,4.9,3.3,8l0,0h-7C22.1,12.8,23.5,10,25.7,8L25.7,8L25.7,8z M25,7.3c-2.1-2-4.9-3.2-8-3.3v12h4
			C21.1,12.6,22.6,9.5,25,7.3L25,7.3L25,7.3z M7.3,8c-1.9,2.1-3.2,4.9-3.3,8l0,0h7C10.8,12.8,9.4,10,7.3,8L7.3,8L7.3,8z M8,7.3
			c2.1-2,4.9-3.2,8-3.3l0,0v12h-4C11.8,12.6,10.3,9.5,8,7.3L8,7.3L8,7.3z"/>
	</g>
</g>
</svg>
