<?xml version="1.0" encoding="UTF-8"?>
<svg width="75px" height="96px" viewBox="0 0 486 490" version="1.1" xmlns="http://www.w3.org/2000/svg" xmlns:xlink="http://www.w3.org/1999/xlink">
    <title>arrow-quattro</title>
    <g id="Page-1" stroke="none" stroke-width="1" fill="none" fill-rule="evenodd">
        <g id="arrow-quattro" transform="translate(0.000000, -1.000000)" fill="#FFFFFF" fill-rule="nonzero">
            <path d="M320.011,214.073 C325.589,219.643 334.626,219.64 340.201,214.066 L408.757,145.512 L430.727,167.465 C435.239,171.977 441.886,173.604 447.977,171.706 C454.068,169.791 458.596,164.674 459.727,158.393 L484.964,19.084 C485.858,14.109 484.262,9.023 480.676,5.469 C477.104,1.899 472.002,0.336 467.043,1.26 L328.438,27.231 C322.172,28.411 317.086,32.94 315.206,39.028 C313.325,45.104 314.966,51.736 319.462,56.231 L341.415,78.184 L272.825,146.747 C267.244,152.326 267.246,161.375 272.83,166.952 L320.011,214.073 Z" id="XMLID_578_"></path>
            <path d="M165.762,277.705 C160.184,272.134 151.147,272.136 145.572,277.711 L77.019,346.265 L55.05,324.311 C50.536,319.798 43.89,318.172 37.8,320.069 C31.708,321.983 27.182,327.1 26.048,333.382 L0.811,472.692 C-0.08,477.665 1.514,482.751 5.1,486.305 C8.672,489.875 13.774,491.44 18.732,490.514 L157.339,464.543 C163.606,463.363 168.689,458.834 170.572,452.745 C172.453,446.67 170.811,440.039 166.314,435.543 L144.362,413.59 L213.024,345.137 C218.618,339.559 218.623,330.5 213.034,324.918 L165.762,277.705 Z" id="XMLID_577_"></path>
            <path d="M26.049,158.393 C27.18,164.674 31.708,169.791 37.799,171.706 C43.89,173.604 50.537,171.977 55.049,167.465 L77.019,145.512 L145.575,214.066 C151.149,219.64 160.186,219.643 165.764,214.073 L212.946,166.953 C218.53,161.376 218.532,152.327 212.952,146.748 L144.362,78.185 L166.315,56.232 C170.811,51.737 172.452,45.105 170.571,39.029 C168.69,32.941 163.604,28.412 157.339,27.232 L18.733,1.261 C13.774,0.337 8.672,1.899 5.1,5.47 C1.514,9.024 -0.082,14.11 0.812,19.085 L26.049,158.393 Z" id="XMLID_576_"></path>
            <path d="M459.728,333.382 C458.594,327.101 454.068,321.984 447.976,320.069 C441.886,318.173 435.24,319.798 430.726,324.311 L408.757,346.264 L340.203,277.71 C334.629,272.135 325.591,272.133 320.013,277.704 L272.742,324.918 C267.153,330.5 267.157,339.559 272.752,345.137 L341.414,413.59 L319.462,435.543 C314.965,440.039 313.323,446.67 315.204,452.745 C317.087,458.834 322.171,463.363 328.437,464.543 L467.043,490.514 C472.001,491.44 477.103,489.875 480.675,486.305 C484.261,482.75 485.855,477.664 484.964,472.692 L459.728,333.382 Z" id="XMLID_575_"></path>
        </g>
    </g>
</svg>