<?xml version="1.0" encoding="utf-8"?>
<!-- Generator: Adobe Illustrator 21.1.0, SVG Export Plug-In . SVG Version: 6.00 Build 0)  -->
<svg version="1.1" id="圖層_1" xmlns="http://www.w3.org/2000/svg" xmlns:xlink="http://www.w3.org/1999/xlink" x="0px" y="0px"
	 viewBox="0 0 1538 1050" style="enable-background:new 0 0 1538 1050;" xml:space="preserve">
<!-- <style type="text/css">
	.st0{fill:none;stroke:url(#SVGID_1_);}
	.st1{fill
	.st4{fill:url(#Shape_6_);}
</style> -->
<path class="st0" fill="none" stroke="#222" d="M504.7,517.4C521.6,656,947.8,718,1456.6,656S2364,431.4,2347,292.9c-17-138.6-443.1-200.6-951.8-138.5
	c-35.5,4.4-71,9.2-106.5,14.6C832,239.3,488.9,388.7,504.7,517.4z"/>
<linearGradient id="SVGID_2_" gradientUnits="userSpaceOnUse" x1="824.8374" y1="717.425" x2="1731.6234" y2="246.5461">
	<stop  offset="0" style="stop-color:#009989"/>
	<stop  offset="1" style="stop-color:#249CFF"/>
</linearGradient>
<path class="st1" fill="none" stroke="#222" d="M1213.9,40.3C507.8,148.9-22.5,379.9,1.9,578.9C28,793.1,686.8,889,1473.2,793.1S2876,446,2849.7,231.8
	c-26.3-214.2-684.9-310-1471.3-214.2C1323.5,24.4,1268.7,31.9,1213.9,40.3"/>
<linearGradient id="SVGID_3_" gradientUnits="userSpaceOnUse" x1="1310.6324" y1="194.5549" x2="1541.4874" y2="617.6415">
	<stop  offset="0" style="stop-color:#009989"/>
	<stop  offset="1" style="stop-color:#2371B1"/>
</linearGradient>
<path class="st2" fill="none" stroke="#222" d="M1328.2,237.5c-324.2,49.9-567.8,156-556.7,247.3c12,98.4,314.5,142.3,675.7,98.4s644.2-159.5,632.2-257.8
	S1764.9,183,1403.7,227C1378.1,230.2,1353,233.7,1328.2,237.5"/>

</svg>
